<svg xmlns="http://www.w3.org/2000/svg" version="1.1" width="970px" height="186px" class="at-surface-svg">
<text x="485.25" y="0" style='stroke: none; font:48px Georgia, serif; dominant-baseline: hanging' text-anchor="middle">Title</text><text x="485.25" y="48" style='stroke: none; font:30px Georgia, serif; dominant-baseline: hanging' text-anchor="middle">Subtitle</text><text x="485.25" y="78" style='stroke: none; font:30px Georgia, serif; dominant-baseline: hanging' text-anchor="middle">Artist</text><text x="485.25" y="108" style='stroke: none; font:30px Georgia, serif; dominant-baseline: hanging' text-anchor="middle">Album</text><text x="35" y="138" style='stroke: none; font:22.5px Georgia, serif; dominant-baseline: hanging'>Words by Words Writer</text><text x="935.5" y="138" style='stroke: none; font:22.5px Georgia, serif; dominant-baseline: hanging' text-anchor="end">Music by Music Writer</text></svg>
<svg xmlns="http://www.w3.org/2000/svg" version="1.1" width="970px" height="21px" class="at-surface-svg">
<text x="35" y="0" style='stroke: none; font:italic 18px Georgia, serif; dominant-baseline: hanging'>Guitar Standard Tuning</text></svg>
<svg xmlns="http://www.w3.org/2000/svg" version="1.1" width="970px" height="249px" class="at-surface-svg">
<rect x="55.99999999999999" y="40.245" width="199.5" height="1.755" fill="#A5A5A5" />
<rect x="55.99999999999999" y="53.745" width="199.5" height="1.755" fill="#A5A5A5" />
<rect x="55.99999999999999" y="67.245" width="199.5" height="1.755" fill="#A5A5A5" />
<rect x="55.99999999999999" y="80.745" width="199.5" height="1.755" fill="#A5A5A5" />
<rect x="55.99999999999999" y="94.245" width="199.5" height="1.755" fill="#A5A5A5" />
<rect x="55.99999999999999" y="40.245" width="2.16" height="55.755" fill="#222211" />
<g transform="translate(85.27699999999999 81.6225)" class="at" ><text style="font-size: 150%; stroke:none" text-anchor="middle">&#57424;</text></g><g transform="translate(110.144 54.6225)" class="at" ><text style="font-size: 150%; stroke:none">&#57476;</text></g><g transform="translate(110.144 81.6765)" class="at" ><text style="font-size: 150%; stroke:none">&#57476;</text></g><text x="140.114" y="20.25" style='stroke: none; font:16.5px Arial, sans-serif; dominant-baseline: hanging' fill="#C80000">1  </text><rect x="241.19000000000003" y="40.245" width="2.16" height="55.755" fill="#222211" />
<rect x="248.75" y="40.245" width="6.75" height="55.755" fill="#222211" />
<text x="178.634" y="27.4152" style='stroke: none; font:bold 21px Georgia, serif; '>Moderate </text><g transform="translate(340.418 27.4152)" class="at" ><text style="font-size: 104.99999999999999%; stroke:none">&#60581;</text></g><text x="352.9676" y="27.4152" style='stroke: none; font:bold 21px Georgia, serif; '> = 120</text><rect x="55.99999999999999" y="142.245" width="199.5" height="1.755" fill="#A5A5A5" />
<rect x="55.99999999999999" y="161.745" width="199.5" height="1.755" fill="#A5A5A5" />
<rect x="55.99999999999999" y="181.245" width="199.5" height="1.755" fill="#A5A5A5" />
<rect x="55.99999999999999" y="200.74499999999998" width="199.5" height="1.755" fill="#A5A5A5" />
<rect x="55.99999999999999" y="220.24499999999998" width="199.5" height="1.755" fill="#A5A5A5" />
<rect x="55.99999999999999" y="239.745" width="199.5" height="1.755" fill="#A5A5A5" />
<rect x="55.99999999999999" y="142.245" width="2.16" height="99.255" fill="#222211" />
<g transform="translate(85.27699999999999 191.8725)" class="at" ><text style="font-size: 150%; stroke:none" text-anchor="middle">&#57453;</text></g><g class="b0"></g><rect x="241.19000000000003" y="142.245" width="2.16" height="99.255" fill="#222211" />
<rect x="248.75" y="142.245" width="6.75" height="99.255" fill="#222211" />
<g transform="translate(46.99999999999999 ,141.75) rotate( -90.1)"><text x="0" y="0" style='stroke: none; font:italic 18px Georgia, serif; dominant-baseline: ideographic' fill="#222211" text-anchor="middle">Track 1</text></g><rect x="55.99999999999999" y="96" width="2.16" height="48" fill="#222211" />
</svg>
<svg xmlns="http://www.w3.org/2000/svg" version="1.1" width="1302px" height="33px" class="at-surface-svg">
<text x="485.25" y="0" style='stroke: none; font:bold 18px Arial, sans-serif; dominant-baseline: hanging' text-anchor="middle">Copyright</text><text x="485.25" y="16.363636363636363" style='stroke: none; font:bold 18px Arial, sans-serif; dominant-baseline: hanging' text-anchor="middle">All Rights Reserved - International Copyright Secured</text></svg>
<svg xmlns="http://www.w3.org/2000/svg" version="1.1" width="793px" height="18px" class="at-surface-svg">
<text x="485.25" y="0" style='stroke: none; font:bold 18px Arial, sans-serif; dominant-baseline: hanging' text-anchor="middle">rendered by alphaTab</text></svg>