<svg xmlns="http://www.w3.org/2000/svg" version="1.1" viewBox="0 0 485 124" width="970px" height="248px" class="at-surface-svg">
<text x="242.5" y="0" style='stroke: none; font:32px Georgia, serif; dominant-baseline: hanging' text-anchor="middle">Title</text><text x="242.5" y="32" style='stroke: none; font:20px Georgia, serif; dominant-baseline: hanging' text-anchor="middle">Subtitle</text><text x="242.5" y="52" style='stroke: none; font:20px Georgia, serif; dominant-baseline: hanging' text-anchor="middle">Artist</text><text x="242.5" y="72" style='stroke: none; font:20px Georgia, serif; dominant-baseline: hanging' text-anchor="middle">Album</text><text x="17.5" y="92" style='stroke: none; font:15px Georgia, serif; dominant-baseline: hanging'>Words by Words Writer</text><text x="467.5" y="92" style='stroke: none; font:15px Georgia, serif; dominant-baseline: hanging' text-anchor="end">Music by Music Writer</text></svg>
<svg xmlns="http://www.w3.org/2000/svg" version="1.1" viewBox="0 0 485 14" width="970px" height="28px" class="at-surface-svg">
<text x="17.5" y="0" style='stroke: none; font:italic 12px Georgia, serif; dominant-baseline: hanging'>Guitar Standard Tuning</text></svg>
<svg xmlns="http://www.w3.org/2000/svg" version="1.1" viewBox="0 0 485 166" width="970px" height="332px" class="at-surface-svg">
<rect x="31.5" y="26.83" width="133" height="1.17" fill="#A5A5A5" />
<rect x="31.5" y="35.83" width="133" height="1.17" fill="#A5A5A5" />
<rect x="31.5" y="44.83" width="133" height="1.17" fill="#A5A5A5" />
<rect x="31.5" y="53.83" width="133" height="1.17" fill="#A5A5A5" />
<rect x="31.5" y="62.83" width="133" height="1.17" fill="#A5A5A5" />
<rect x="31.5" y="26.83" width="1.44" height="37.17" fill="#222211" />
<g transform="translate(51.018 54.415)" class="at" ><text style="stroke:none" text-anchor="middle">&#57424;</text></g><g transform="translate(67.596 36.415)" class="at" ><text style="stroke:none">&#57476;</text></g><g transform="translate(67.596 54.451)" class="at" ><text style="stroke:none">&#57476;</text></g><text x="87.57600000000001" y="13.5" style='stroke: none; font:11px Arial, sans-serif; dominant-baseline: hanging' fill="#C80000">1  </text><rect x="154.96" y="26.83" width="1.44" height="37.17" fill="#222211" />
<rect x="160" y="26.83" width="4.5" height="37.17" fill="#222211" />
<text x="113.256" y="18.276799999999998" style='stroke: none; font:bold 14px Georgia, serif; '>Moderate </text><g transform="translate(221.11200000000002 18.276799999999998)" class="at" ><text style="font-size: 70%; stroke:none">&#60581;</text></g><text x="229.47840000000002" y="18.276799999999998" style='stroke: none; font:bold 14px Georgia, serif; '> = 120</text><rect x="31.5" y="94.83" width="133" height="1.17" fill="#A5A5A5" />
<rect x="31.5" y="107.83" width="133" height="1.17" fill="#A5A5A5" />
<rect x="31.5" y="120.83" width="133" height="1.17" fill="#A5A5A5" />
<rect x="31.5" y="133.82999999999998" width="133" height="1.17" fill="#A5A5A5" />
<rect x="31.5" y="146.82999999999998" width="133" height="1.17" fill="#A5A5A5" />
<rect x="31.5" y="159.83" width="133" height="1.17" fill="#A5A5A5" />
<rect x="31.5" y="94.83" width="1.44" height="66.17" fill="#222211" />
<g transform="translate(51.018 127.91499999999999)" class="at" ><text style="stroke:none" text-anchor="middle">&#57453;</text></g><g class="b0"></g><rect x="154.96" y="94.83" width="1.44" height="66.17" fill="#222211" />
<rect x="160" y="94.83" width="4.5" height="66.17" fill="#222211" />
<g transform="translate(25.5 ,94.5) rotate( -90.1)"><text x="0" y="0" style='stroke: none; font:italic 12px Georgia, serif; dominant-baseline: ideographic' fill="#222211" text-anchor="middle">Track 1</text></g><rect x="31.5" y="64" width="1.44" height="32" fill="#222211" />
</svg>
<svg xmlns="http://www.w3.org/2000/svg" version="1.1" viewBox="0 0 787 22" width="1574px" height="44px" class="at-surface-svg">
<text x="242.5" y="0" style='stroke: none; font:bold 12px Arial, sans-serif; dominant-baseline: hanging' text-anchor="middle">Copyright</text><text x="242.5" y="10.909090909090908" style='stroke: none; font:bold 12px Arial, sans-serif; dominant-baseline: hanging' text-anchor="middle">All Rights Reserved - International Copyright Secured</text></svg>
<svg xmlns="http://www.w3.org/2000/svg" version="1.1" viewBox="0 0 447 12" width="895px" height="24px" class="at-surface-svg">
<text x="242.5" y="0" style='stroke: none; font:bold 12px Arial, sans-serif; dominant-baseline: hanging' text-anchor="middle">rendered by alphaTab</text></svg>