<svg xmlns="http://www.w3.org/2000/svg" version="1.1" viewBox="0 0 647 124" width="970px" height="186px" class="at-surface-svg">
<text x="323.5" y="0" style='stroke: none; font:32px Georgia, serif; dominant-baseline: hanging' text-anchor="middle">Title</text><text x="323.5" y="32" style='stroke: none; font:20px Georgia, serif; dominant-baseline: hanging' text-anchor="middle">Subtitle</text><text x="323.5" y="52" style='stroke: none; font:20px Georgia, serif; dominant-baseline: hanging' text-anchor="middle">Artist</text><text x="323.5" y="72" style='stroke: none; font:20px Georgia, serif; dominant-baseline: hanging' text-anchor="middle">Album</text><text x="23.333333333333332" y="92" style='stroke: none; font:15px Georgia, serif; dominant-baseline: hanging'>Words by Words Writer</text><text x="623.6666666666666" y="92" style='stroke: none; font:15px Georgia, serif; dominant-baseline: hanging' text-anchor="end">Music by Music Writer</text></svg>
<svg xmlns="http://www.w3.org/2000/svg" version="1.1" viewBox="0 0 647 14" width="970px" height="21px" class="at-surface-svg">
<text x="23.333333333333332" y="0" style='stroke: none; font:italic 12px Georgia, serif; dominant-baseline: hanging'>Guitar Standard Tuning</text></svg>
<svg xmlns="http://www.w3.org/2000/svg" version="1.1" viewBox="0 0 647 166" width="970px" height="249px" class="at-surface-svg">
<rect x="37.33333333333333" y="26.83" width="133" height="1.17" fill="#A5A5A5" />
<rect x="37.33333333333333" y="35.83" width="133" height="1.17" fill="#A5A5A5" />
<rect x="37.33333333333333" y="44.83" width="133" height="1.17" fill="#A5A5A5" />
<rect x="37.33333333333333" y="53.83" width="133" height="1.17" fill="#A5A5A5" />
<rect x="37.33333333333333" y="62.83" width="133" height="1.17" fill="#A5A5A5" />
<rect x="37.33333333333333" y="26.83" width="1.44" height="37.17" fill="#222211" />
<g transform="translate(56.85133333333333 54.415)" class="at" ><text style="stroke:none" text-anchor="middle">&#57424;</text></g><g transform="translate(73.42933333333333 36.415)" class="at" ><text style="stroke:none">&#57476;</text></g><g transform="translate(73.42933333333333 54.451)" class="at" ><text style="stroke:none">&#57476;</text></g><text x="93.40933333333334" y="13.5" style='stroke: none; font:11px Arial, sans-serif; dominant-baseline: hanging' fill="#C80000">1  </text><rect x="160.79333333333335" y="26.83" width="1.44" height="37.17" fill="#222211" />
<rect x="165.83333333333334" y="26.83" width="4.5" height="37.17" fill="#222211" />
<text x="119.08933333333333" y="18.276799999999998" style='stroke: none; font:bold 14px Georgia, serif; '>Moderate </text><g transform="translate(226.94533333333334 18.276799999999998)" class="at" ><text style="font-size: 70%; stroke:none">&#60581;</text></g><text x="235.31173333333334" y="18.276799999999998" style='stroke: none; font:bold 14px Georgia, serif; '> = 120</text><rect x="37.33333333333333" y="94.83" width="133" height="1.17" fill="#A5A5A5" />
<rect x="37.33333333333333" y="107.83" width="133" height="1.17" fill="#A5A5A5" />
<rect x="37.33333333333333" y="120.83" width="133" height="1.17" fill="#A5A5A5" />
<rect x="37.33333333333333" y="133.82999999999998" width="133" height="1.17" fill="#A5A5A5" />
<rect x="37.33333333333333" y="146.82999999999998" width="133" height="1.17" fill="#A5A5A5" />
<rect x="37.33333333333333" y="159.83" width="133" height="1.17" fill="#A5A5A5" />
<rect x="37.33333333333333" y="94.83" width="1.44" height="66.17" fill="#222211" />
<g transform="translate(56.85133333333333 127.91499999999999)" class="at" ><text style="stroke:none" text-anchor="middle">&#57453;</text></g><g class="b0"></g><rect x="160.79333333333335" y="94.83" width="1.44" height="66.17" fill="#222211" />
<rect x="165.83333333333334" y="94.83" width="4.5" height="66.17" fill="#222211" />
<g transform="translate(31.33333333333333 ,94.5) rotate( -90.1)"><text x="0" y="0" style='stroke: none; font:italic 12px Georgia, serif; dominant-baseline: ideographic' fill="#222211" text-anchor="middle">Track 1</text></g><rect x="37.33333333333333" y="64" width="1.44" height="32" fill="#222211" />
</svg>
<svg xmlns="http://www.w3.org/2000/svg" version="1.1" viewBox="0 0 868 22" width="1302px" height="33px" class="at-surface-svg">
<text x="323.5" y="0" style='stroke: none; font:bold 12px Arial, sans-serif; dominant-baseline: hanging' text-anchor="middle">Copyright</text><text x="323.5" y="10.909090909090908" style='stroke: none; font:bold 12px Arial, sans-serif; dominant-baseline: hanging' text-anchor="middle">All Rights Reserved - International Copyright Secured</text></svg>
<svg xmlns="http://www.w3.org/2000/svg" version="1.1" viewBox="0 0 528 12" width="793px" height="18px" class="at-surface-svg">
<text x="323.5" y="0" style='stroke: none; font:bold 12px Arial, sans-serif; dominant-baseline: hanging' text-anchor="middle">rendered by alphaTab</text></svg>