<svg xmlns="http://www.w3.org/2000/svg" version="1.1" width="970px" height="248px" class="at-surface-svg">
<text x="485" y="0" style='stroke: none; font:64px Georgia, serif; dominant-baseline: hanging' text-anchor="middle">Title</text><text x="485" y="64" style='stroke: none; font:40px Georgia, serif; dominant-baseline: hanging' text-anchor="middle">Subtitle</text><text x="485" y="104" style='stroke: none; font:40px Georgia, serif; dominant-baseline: hanging' text-anchor="middle">Artist</text><text x="485" y="144" style='stroke: none; font:40px Georgia, serif; dominant-baseline: hanging' text-anchor="middle">Album</text><text x="35" y="184" style='stroke: none; font:30px Georgia, serif; dominant-baseline: hanging'>Words by Words Writer</text><text x="935" y="184" style='stroke: none; font:30px Georgia, serif; dominant-baseline: hanging' text-anchor="end">Music by Music Writer</text></svg>
<svg xmlns="http://www.w3.org/2000/svg" version="1.1" width="970px" height="28px" class="at-surface-svg">
<text x="35" y="0" style='stroke: none; font:italic 24px Georgia, serif; dominant-baseline: hanging'>Guitar Standard Tuning</text></svg>
<svg xmlns="http://www.w3.org/2000/svg" version="1.1" width="970px" height="332px" class="at-surface-svg">
<rect x="63" y="53.66" width="266" height="2.34" fill="#A5A5A5" />
<rect x="63" y="71.66" width="266" height="2.34" fill="#A5A5A5" />
<rect x="63" y="89.66" width="266" height="2.34" fill="#A5A5A5" />
<rect x="63" y="107.66" width="266" height="2.34" fill="#A5A5A5" />
<rect x="63" y="125.66" width="266" height="2.34" fill="#A5A5A5" />
<rect x="63" y="53.66" width="2.88" height="74.34" fill="#222211" />
<g transform="translate(102.036 108.83)" class="at" ><text style="font-size: 200%; stroke:none" text-anchor="middle">&#57424;</text></g><g transform="translate(135.192 72.83)" class="at" ><text style="font-size: 200%; stroke:none">&#57476;</text></g><g transform="translate(135.192 108.902)" class="at" ><text style="font-size: 200%; stroke:none">&#57476;</text></g><text x="175.15200000000002" y="27" style='stroke: none; font:22px Arial, sans-serif; dominant-baseline: hanging' fill="#C80000">1  </text><rect x="309.92" y="53.66" width="2.88" height="74.34" fill="#222211" />
<rect x="320" y="53.66" width="9" height="74.34" fill="#222211" />
<text x="226.512" y="36.553599999999996" style='stroke: none; font:bold 28px Georgia, serif; '>Moderate </text><g transform="translate(442.22400000000005 36.553599999999996)" class="at" ><text style="font-size: 140%; stroke:none">&#60581;</text></g><text x="458.95680000000004" y="36.553599999999996" style='stroke: none; font:bold 28px Georgia, serif; '> = 120</text><rect x="63" y="189.66" width="266" height="2.34" fill="#A5A5A5" />
<rect x="63" y="215.66" width="266" height="2.34" fill="#A5A5A5" />
<rect x="63" y="241.66" width="266" height="2.34" fill="#A5A5A5" />
<rect x="63" y="267.65999999999997" width="266" height="2.34" fill="#A5A5A5" />
<rect x="63" y="293.65999999999997" width="266" height="2.34" fill="#A5A5A5" />
<rect x="63" y="319.66" width="266" height="2.34" fill="#A5A5A5" />
<rect x="63" y="189.66" width="2.88" height="132.34" fill="#222211" />
<g transform="translate(102.036 255.82999999999998)" class="at" ><text style="font-size: 200%; stroke:none" text-anchor="middle">&#57453;</text></g><g class="b0"></g><rect x="309.92" y="189.66" width="2.88" height="132.34" fill="#222211" />
<rect x="320" y="189.66" width="9" height="132.34" fill="#222211" />
<g transform="translate(51 ,189) rotate( -90.1)"><text x="0" y="0" style='stroke: none; font:italic 24px Georgia, serif; dominant-baseline: ideographic' fill="#222211" text-anchor="middle">Track 1</text></g><rect x="63" y="128" width="2.88" height="64" fill="#222211" />
</svg>
<svg xmlns="http://www.w3.org/2000/svg" version="1.1" width="1574px" height="44px" class="at-surface-svg">
<text x="485" y="0" style='stroke: none; font:bold 24px Arial, sans-serif; dominant-baseline: hanging' text-anchor="middle">Copyright</text><text x="485" y="21.818181818181817" style='stroke: none; font:bold 24px Arial, sans-serif; dominant-baseline: hanging' text-anchor="middle">All Rights Reserved - International Copyright Secured</text></svg>
<svg xmlns="http://www.w3.org/2000/svg" version="1.1" width="895px" height="24px" class="at-surface-svg">
<text x="485" y="0" style='stroke: none; font:bold 24px Arial, sans-serif; dominant-baseline: hanging' text-anchor="middle">rendered by alphaTab</text></svg>